<?xml version="1.0" encoding="UTF-8" standalone="no"?>
<!DOCTYPE svg PUBLIC "-//W3C//DTD SVG 20010904//EN"
              "http://www.w3.org/TR/2001/REC-SVG-20010904/DTD/svg10.dtd">

<svg xmlns="http://www.w3.org/2000/svg"
     width="0.222222in" height="0.222222in"
     viewBox="0 0 16 16">
  <path id="Selection"
        fill="white" stroke="none" stroke-width="1"
        d="M 7.00,1.00
           C 7.00,1.00 8.00,1.00 8.00,1.00
             8.00,1.00 8.00,2.00 8.00,2.00
             8.00,2.00 9.00,2.00 9.00,2.00
             9.00,2.00 9.00,3.00 9.00,3.00
             9.00,3.00 8.00,3.00 8.00,3.00
             8.00,3.00 8.00,4.00 8.00,4.00
             8.00,4.00 7.00,4.00 7.00,4.00
             7.00,4.00 7.00,3.00 7.00,3.00
             7.00,3.00 6.00,3.00 6.00,3.00
             6.00,3.00 6.00,2.00 6.00,2.00
             6.00,2.00 7.00,2.00 7.00,2.00
             7.00,2.00 7.00,1.00 7.00,1.00 Z
           M 11.00,2.00
           C 11.00,2.00 12.00,2.00 12.00,2.00
             12.00,2.00 12.00,3.00 12.00,3.00
             12.00,3.00 11.00,3.00 11.00,3.00
             11.00,3.00 11.00,2.00 11.00,2.00 Z
           M 2.00,4.00
           C 2.00,4.00 3.00,4.00 3.00,4.00
             3.00,4.00 3.00,5.00 3.00,5.00
             3.00,5.00 2.00,5.00 2.00,5.00
             2.00,5.00 2.00,4.00 2.00,4.00 Z
           M 13.00,5.00
           C 13.00,5.00 14.00,5.00 14.00,5.00
             14.00,5.00 14.00,6.00 14.00,6.00
             14.00,6.00 15.00,6.00 15.00,6.00
             15.00,6.00 15.00,7.00 15.00,7.00
             15.00,7.00 14.00,7.00 14.00,7.00
             14.00,7.00 14.00,8.00 14.00,8.00
             14.00,8.00 13.00,8.00 13.00,8.00
             13.00,8.00 13.00,7.00 13.00,7.00
             13.00,7.00 12.00,7.00 12.00,7.00
             12.00,7.00 12.00,6.00 12.00,6.00
             12.00,6.00 13.00,6.00 13.00,6.00
             13.00,6.00 13.00,5.00 13.00,5.00 Z
           M 14.00,6.00
           C 14.00,6.00 13.00,6.00 13.00,6.00
             13.00,6.00 13.00,7.00 13.00,7.00
             13.00,7.00 14.00,7.00 14.00,7.00
             14.00,7.00 14.00,6.00 14.00,6.00 Z
           M 7.00,9.00
           C 7.00,9.00 8.00,9.00 8.00,9.00
             8.00,9.00 8.00,10.00 8.00,10.00
             8.00,10.00 7.00,10.00 7.00,10.00
             7.00,10.00 7.00,9.00 7.00,9.00 Z
           M 1.00,10.00
           C 1.00,10.00 2.00,10.00 2.00,10.00
             2.00,10.00 2.00,11.00 2.00,11.00
             2.00,11.00 3.00,11.00 3.00,11.00
             3.00,11.00 3.00,10.00 3.00,10.00
             3.00,10.00 4.00,10.00 4.00,10.00
             4.00,10.00 4.00,11.00 4.00,11.00
             4.00,11.00 3.00,11.00 3.00,11.00
             3.00,11.00 3.00,12.00 3.00,12.00
             3.00,12.00 4.00,12.00 4.00,12.00
             4.00,12.00 4.00,13.00 4.00,13.00
             4.00,13.00 3.00,13.00 3.00,13.00
             3.00,13.00 3.00,12.00 3.00,12.00
             3.00,12.00 2.00,12.00 2.00,12.00
             2.00,12.00 2.00,13.00 2.00,13.00
             2.00,13.00 1.00,13.00 1.00,13.00
             1.00,13.00 1.00,12.00 1.00,12.00
             1.00,12.00 2.00,12.00 2.00,12.00
             2.00,12.00 2.00,11.00 2.00,11.00
             2.00,11.00 1.00,11.00 1.00,11.00
             1.00,11.00 1.00,10.00 1.00,10.00 Z
           M 10.00,12.00
           C 10.00,12.00 11.00,12.00 11.00,12.00
             11.00,12.00 11.00,13.00 11.00,13.00
             11.00,13.00 12.00,13.00 12.00,13.00
             12.00,13.00 12.00,14.00 12.00,14.00
             12.00,14.00 11.00,14.00 11.00,14.00
             11.00,14.00 11.00,15.00 11.00,15.00
             11.00,15.00 10.00,15.00 10.00,15.00
             10.00,15.00 10.00,14.00 10.00,14.00
             10.00,14.00 9.00,14.00 9.00,14.00
             9.00,14.00 9.00,13.00 9.00,13.00
             9.00,13.00 10.00,13.00 10.00,13.00
             10.00,13.00 10.00,12.00 10.00,12.00 Z" />
</svg>
